<?xml version="1.0" encoding="UTF-8" standalone="no"?>
<!DOCTYPE svg PUBLIC "-//W3C//DTD SVG 1.1//EN" "http://www.w3.org/Graphics/SVG/1.1/DTD/svg11.dtd">
<svg width="100%" height="100%" viewBox="0 0 616 37" version="1.1" xmlns="http://www.w3.org/2000/svg" xmlns:xlink="http://www.w3.org/1999/xlink" xml:space="preserve" xmlns:serif="http://www.serif.com/" style="fill-rule:evenodd;clip-rule:evenodd;stroke-linejoin:round;stroke-miterlimit:2;">
    <g transform="matrix(1,0,0,1,0,-1493)">
        <g id="Artboard4" transform="matrix(1,0,0,1,731.033,-0.0264493)">
            <rect x="-731.033" y="1493.03" width="615.036" height="36.059" style="fill:none;"/>
            <g transform="matrix(0.963223,-0.0112125,0.0111919,0.961455,-1051.13,-1796.08)">
                <path d="M302.912,3454.22C312.912,3454.76 322.717,3455.55 332.84,3455.95C340.284,3456.25 347.688,3456.4 355.204,3456.43C362.614,3456.47 370.036,3456.43 377.509,3456.17C406.647,3455.15 436.259,3453.02 466.515,3451.7C532.621,3448.81 601.645,3446.92 674.457,3447.02C752.396,3447.13 834.617,3449.22 922.16,3454.22C923.071,3454.28 923.865,3453.59 923.93,3452.68C923.995,3451.77 923.308,3450.97 922.397,3450.91C787.114,3439.24 664.342,3434.44 550.432,3434.71C508.718,3434.81 468.2,3435.5 428.706,3436.99C411.132,3437.65 393.74,3438.16 376.586,3439.5C369.106,3440.08 361.7,3440.89 354.324,3441.82C346.846,3442.77 339.497,3443.84 332.134,3445.11C322.135,3446.83 312.512,3448.94 302.677,3450.91C301.765,3450.97 301.078,3451.77 301.143,3452.68C301.208,3453.59 302.001,3454.28 302.912,3454.22Z" style="fill:rgb(250,216,114);"/>
            </g>
        </g>
    </g>
</svg>
