<?xml version="1.0" encoding="UTF-8" standalone="no"?>
<!DOCTYPE svg PUBLIC "-//W3C//DTD SVG 1.1//EN" "http://www.w3.org/Graphics/SVG/1.1/DTD/svg11.dtd">
<svg width="100%" height="100%" viewBox="0 0 432 33" version="1.1" xmlns="http://www.w3.org/2000/svg" xmlns:xlink="http://www.w3.org/1999/xlink" xml:space="preserve" xmlns:serif="http://www.serif.com/" style="fill-rule:evenodd;clip-rule:evenodd;stroke-linejoin:round;stroke-miterlimit:2;">
    <g transform="matrix(1,0,0,1,-2366,-2160)">
        <g id="Artboard4" transform="matrix(1,0,0,1,-0.396874,-0.767917)">
            <rect x="2366.4" y="2160.77" width="431.855" height="32.058" style="fill:none;"/>
            <g transform="matrix(0.667558,-0.00777078,0.0092734,0.796643,2141.85,-563.617)">
                <path d="M302.998,3454.56C313.136,3455.37 322.803,3456.44 333.076,3457.07C340.56,3457.53 347.927,3457.8 355.494,3457.94C362.914,3458.07 370.324,3458.12 377.807,3457.89C406.922,3457 436.466,3454.71 466.673,3453.33C532.716,3450.33 601.654,3448.23 674.421,3448.12C752.33,3448.01 834.513,3449.84 922.074,3454.56C923.388,3454.65 924.546,3453.83 924.659,3452.73C924.772,3451.63 923.796,3450.66 922.482,3450.57C787.177,3438.49 664.365,3433.29 550.334,3433.27C508.551,3433.26 467.964,3433.85 428.4,3435.28C410.802,3435.92 393.37,3436.36 376.215,3437.78C368.72,3438.4 361.338,3439.29 353.976,3440.32C346.476,3441.37 339.202,3442.56 331.86,3443.99C321.803,3445.95 312.443,3448.32 302.591,3450.57C301.277,3450.66 300.301,3451.63 300.414,3452.73C300.526,3453.83 301.684,3454.65 302.998,3454.56Z" style="fill:rgb(250,216,114);"/>
            </g>
        </g>
    </g>
</svg>
